# xmcd
#
# Track frame offsets: 
#        150
#        14723
#        33391
#        47380
#        62860
#        74902
#        89745
#        99724
#        114309
#        130137
#        146523
#
# Disc length: 2169 seconds
#
# Revision: 0
# Processed by: cddbd v1.5PL3 Copyright (c) Steve Scherf et al.
# Submitted via: ExactAudioCopy v0.90b4
#
DISCID=a408770b
DTITLE=Rick Trevino - The Best Of Rick Trevino
DYEAR=1900
DGENRE=Country
TTITLE0=Bastante Cordon
TTITLE1=Un Rayo De Luz (Bilingual Version)
TTITLE2=Se Escapan Mis Razones (Running Out Of Reasons)
TTITLE3=Si Quieres Conmigo
TTITLE4=Salte De Espalda
TTITLE5=She Can't Say I Didn't Cry
TTITLE6=Corazon Sonador
TTITLE7=Me Duele Que La Trate Tan Bien (I Wish He Wouldn't Treat Her T
TTITLE7=hat Way)
TTITLE8=Serio Amor (Serious Love)
TTITLE9=Mi Vida Eres Tu (I Only Get This Way With You) (Bilingual Vers
TTITLE9=ion)
TTITLE10=I Only Get This Way With You)
EXTD=
EXTT0=
EXTT1=
EXTT2=
EXTT3=
EXTT4=
EXTT5=
EXTT6=
EXTT7=
EXTT8=
EXTT9=
EXTT10=
PLAYORDER=
